<svg width="135" height="44" viewBox="0 0 135 44" fill="none" xmlns="http://www.w3.org/2000/svg">
<path d="M77.9411 0.105042H57.0588C56.7039 0.105042 56.4163 0.392712 56.4163 0.747572V22.1478C56.4163 22.5026 56.7039 22.7903 57.0588 22.7903H69.7927C70.1476 22.7903 70.4353 22.5026 70.4353 22.1478V14.5476C70.4353 9.25477 73.221 4.3526 77.7682 1.6438L78.2699 1.34495C78.4644 1.22907 78.5836 1.01937 78.5836 0.792944V0.747573C78.5836 0.392713 78.2959 0.105042 77.9411 0.105042Z" fill="#4D6575"/>
<path d="M71.4363 17.5402V14.0355C71.4363 9.51038 73.8186 5.31943 77.7068 3.00453C78.0935 2.77431 78.5837 3.05295 78.5837 3.50297V17.4228C78.5837 17.6516 78.3982 17.8371 78.1693 17.8371H71.7332C71.5692 17.8371 71.4363 17.7042 71.4363 17.5402Z" fill="#4D6575"/>
<path d="M71.8509 18.8236L78.1696 18.8275C78.3983 18.8276 78.5837 19.0131 78.5837 19.2418V22.2768C78.5837 22.5057 78.3982 22.6912 78.1693 22.6912H71.8506C71.6218 22.6912 71.4363 22.5057 71.4363 22.2768V19.238C71.4363 19.009 71.6219 18.8235 71.8509 18.8236Z" fill="#4D6575"/>
<path d="M1.10026 30.4726H3.28304L9.24575 38.9198V30.4726H11.6415V42.895H9.4587L3.49599 34.4478V42.895H1.10026V30.4726ZM17.192 43.0369C16.4467 43.0369 15.7841 42.895 15.2044 42.611C14.6366 42.3153 14.1929 41.9012 13.8735 41.3688C13.5659 40.8364 13.4121 40.2212 13.4121 39.5232V37.4469C13.4121 36.7489 13.5718 36.1337 13.8912 35.6013C14.2107 35.0571 14.6543 34.6371 15.2222 34.3413C15.8019 34.0455 16.4644 33.8977 17.2098 33.8977H18.8069C19.5522 33.8977 20.2089 34.0455 20.7767 34.3413C21.3564 34.6371 21.806 35.0571 22.1254 35.6013C22.4449 36.1337 22.6046 36.7489 22.6046 37.4469V39.5232C22.6046 40.2212 22.4449 40.8364 22.1254 41.3688C21.806 41.9012 21.3564 42.3153 20.7767 42.611C20.2089 42.895 19.5463 43.0369 18.7892 43.0369H17.192ZM18.7537 40.9606C19.1914 40.9606 19.5404 40.8127 19.8007 40.517C20.061 40.2094 20.1911 39.813 20.1911 39.328V37.6066C20.1911 37.1215 20.061 36.7311 19.8007 36.4354C19.5404 36.1278 19.1973 35.974 18.7714 35.974H17.2452C16.8193 35.974 16.4762 36.1278 16.216 36.4354C15.9557 36.7311 15.8256 37.1215 15.8256 37.6066V39.328C15.8256 39.813 15.9557 40.2094 16.216 40.517C16.4762 40.8127 16.8134 40.9606 17.2275 40.9606H18.7537ZM24.3038 34.0396H26.5398V35.1754C26.7646 34.8323 27.084 34.5543 27.4981 34.3413C27.924 34.1165 28.3676 34.0041 28.829 34.0041H30.0358V36.0982H28.829C28.202 36.0982 27.6933 36.2875 27.3029 36.6661C26.9125 37.0446 26.7173 37.5297 26.7173 38.1212V42.895H24.3038V34.0396ZM34.2383 43.0369C33.1617 43.0369 32.2981 42.753 31.6474 42.1851C30.9967 41.6172 30.6713 40.8719 30.6713 39.9491H33.0493C33.0493 40.2685 33.1558 40.5288 33.3687 40.7299C33.5935 40.9192 33.8834 41.0139 34.2383 41.0139H35.8355C36.5453 41.0139 36.9002 40.8187 36.9002 40.4282V40.1266C36.9002 40.0083 36.8411 39.9018 36.7228 39.8071C36.6045 39.7007 36.4447 39.6297 36.2436 39.5942L33.1735 39.0618C32.4519 38.9435 31.8781 38.6891 31.4522 38.2987C31.0381 37.8965 30.831 37.4291 30.831 36.8968V36.3111C30.831 35.554 31.1386 34.9624 31.7538 34.5365C32.3809 34.1106 33.2504 33.8977 34.3625 33.8977H35.7467C36.7405 33.8977 37.5391 34.1638 38.1425 34.6962C38.7577 35.2168 39.0653 35.9089 39.0653 36.7725H36.6873C36.6873 36.5123 36.5985 36.3052 36.4211 36.1514C36.2554 35.9976 36.0307 35.9207 35.7467 35.9207H34.398C33.629 35.9207 33.2445 36.0982 33.2445 36.4531V36.737C33.2445 36.8672 33.2918 36.9796 33.3865 37.0742C33.493 37.157 33.6408 37.2162 33.8301 37.2517L37.0599 37.8373C37.7343 37.9556 38.2785 38.21 38.6926 38.6004C39.1067 38.979 39.3137 39.4108 39.3137 39.8959V40.5347C39.3137 41.3037 38.9943 41.913 38.3554 42.3626C37.7284 42.8121 36.8884 43.0369 35.8355 43.0369H34.2383ZM44.2796 43.0369C43.5342 43.0369 42.8717 42.9009 42.292 42.6288C41.7241 42.3448 41.2805 41.9544 40.961 41.4575C40.6416 40.9488 40.4819 40.3691 40.4819 39.7184V37.4291C40.4819 36.7311 40.6416 36.1159 40.961 35.5835C41.2805 35.0512 41.7241 34.6371 42.292 34.3413C42.8717 34.0455 43.5342 33.8977 44.2796 33.8977H45.6993C46.835 33.8977 47.746 34.2171 48.4322 34.8559C49.1184 35.4948 49.4615 36.3466 49.4615 37.4114V39.2925H42.8954V39.7184C42.8954 40.1088 43.0196 40.4223 43.268 40.6589C43.5165 40.8956 43.8537 41.0139 44.2796 41.0139H45.6638C46.0778 41.0139 46.4091 40.9251 46.6576 40.7477C46.9178 40.5584 47.048 40.3159 47.048 40.0201H49.426C49.426 40.6116 49.2662 41.1381 48.9468 41.5995C48.6274 42.0609 48.1778 42.4158 47.5981 42.6643C47.0302 42.9127 46.3736 43.0369 45.6283 43.0369H44.2796ZM47.0835 37.5534V37.4114C47.0835 36.95 46.9592 36.5832 46.7108 36.3111C46.4624 36.0272 46.1311 35.8852 45.717 35.8852H44.2796C43.8537 35.8852 43.5106 36.0331 43.2503 36.3289C42.99 36.6246 42.8599 37.0151 42.8599 37.5001V37.5534H47.0835ZM59.7402 38.068L55.144 30.4726H57.8059L60.9647 35.8142L64.1235 30.4726H66.7854L62.1892 38.068V42.895H59.7402V38.068ZM68.7002 43.0369C67.7774 43.0369 67.0321 42.8062 66.4642 42.3448C65.8963 41.8834 65.6124 41.2741 65.6124 40.517V39.8604C65.6124 39.115 65.9082 38.5176 66.4997 38.068C67.0912 37.6066 67.8721 37.3759 68.8422 37.3759H69.9247C70.2323 37.3759 70.5636 37.4173 70.9185 37.5001C71.2734 37.5829 71.5988 37.6953 71.8945 37.8373V36.9145C71.8945 36.6187 71.794 36.3821 71.5929 36.2047C71.4036 36.0154 71.1492 35.9207 70.8298 35.9207H69.3036C68.9723 35.9207 68.7061 35.9976 68.505 36.1514C68.3039 36.3052 68.2033 36.5123 68.2033 36.7725H65.8608C65.8608 35.9089 66.1744 35.2168 66.8014 34.6962C67.4403 34.1638 68.2743 33.8977 69.3036 33.8977H70.8298C71.8709 33.8977 72.7109 34.1757 73.3497 34.7317C73.9886 35.2759 74.308 36.0035 74.308 36.9145V42.895H72.072V41.8302C71.7881 42.1969 71.4391 42.4927 71.025 42.7175C70.6109 42.9305 70.2027 43.0369 69.8005 43.0369H68.7002ZM69.978 41.1913C70.4157 41.1913 70.8061 41.0789 71.1492 40.8542C71.4923 40.6294 71.7407 40.3277 71.8945 39.9491V39.6474C71.7052 39.5054 71.4391 39.3931 71.096 39.3102C70.7647 39.2274 70.4098 39.186 70.0312 39.186H68.9132C68.6292 39.186 68.3985 39.257 68.2211 39.399C68.0436 39.5409 67.9549 39.7302 67.9549 39.9668V40.4282C67.9549 40.653 68.0495 40.8364 68.2388 40.9784C68.44 41.1203 68.7002 41.1913 69.0197 41.1913H69.978ZM79.6848 43.0369C78.9395 43.0369 78.277 42.889 77.6972 42.5933C77.1294 42.2975 76.6857 41.8834 76.3663 41.351C76.0587 40.8187 75.9049 40.2035 75.9049 39.5054V37.4291C75.9049 36.7311 76.0587 36.1159 76.3663 35.5835C76.6857 35.0512 77.1294 34.6371 77.6972 34.3413C78.2651 34.0455 78.9217 33.8977 79.6671 33.8977H81.069C81.7789 33.8977 82.4059 34.0396 82.9501 34.3236C83.4943 34.6075 83.9143 35.0097 84.2101 35.5303C84.5059 36.039 84.6537 36.6306 84.6537 37.3049H82.258C82.258 36.9027 82.1456 36.5832 81.9208 36.3466C81.7079 36.0982 81.4239 35.974 81.069 35.974H79.7026C79.2885 35.974 78.9513 36.1278 78.691 36.4354C78.4426 36.7311 78.3184 37.1215 78.3184 37.6066V39.328C78.3184 39.813 78.4485 40.2094 78.7088 40.517C78.9691 40.8127 79.3062 40.9606 79.7203 40.9606H81.0868C81.4653 40.9606 81.767 40.8246 81.9918 40.5525C82.2284 40.2804 82.3467 39.9195 82.3467 39.47H84.7425C84.7425 40.5466 84.4053 41.4102 83.7309 42.0609C83.0684 42.7116 82.187 43.0369 81.0868 43.0369H79.6848ZM86.19 30.4726H88.6035V34.9269C88.8638 34.6193 89.1832 34.3709 89.5618 34.1816C89.9522 33.9923 90.3249 33.8977 90.6798 33.8977H91.7801C92.7265 33.8977 93.4837 34.1934 94.0516 34.785C94.6313 35.3765 94.9211 36.1573 94.9211 37.1275V42.895H92.5077V37.2162C92.5077 36.8494 92.4071 36.5537 92.206 36.3289C92.0167 36.1041 91.7682 35.9917 91.4606 35.9917H90.3604C89.9463 35.9917 89.5736 36.1455 89.2424 36.4531C88.9229 36.7489 88.71 37.1393 88.6035 37.6243V42.895H86.19V30.4726ZM100.734 42.895C99.693 42.895 98.9299 42.6583 98.4449 42.1851C97.9598 41.7119 97.7173 40.9784 97.7173 39.9846V36.0982H96.1556V34.0396H97.7883V31.36H100.131V34.0396H102.438V36.0982H100.131V39.8781C100.131 40.2094 100.19 40.4519 100.308 40.6057C100.438 40.7595 100.639 40.8364 100.912 40.8364H102.438V42.895H100.734ZM113.551 43.0369C112.64 43.0369 111.836 42.8417 111.138 42.4513C110.451 42.0609 109.919 41.5108 109.541 40.8009C109.162 40.0792 108.973 39.2511 108.973 38.3164V35.0512C108.973 34.1165 109.162 33.2943 109.541 32.5844C109.931 31.8628 110.475 31.3067 111.173 30.9163C111.883 30.5259 112.699 30.3307 113.622 30.3307H115.503C116.391 30.3307 117.171 30.52 117.846 30.8986C118.52 31.2771 119.041 31.8095 119.407 32.4957C119.786 33.1701 119.975 33.9568 119.975 34.8559H117.562C117.562 34.1461 117.372 33.5782 116.994 33.1523C116.615 32.7146 116.118 32.4957 115.503 32.4957H113.622C112.96 32.4957 112.427 32.7442 112.025 33.241C111.623 33.7261 111.422 34.365 111.422 35.1576V38.21C111.422 39.0026 111.617 39.6474 112.007 40.1443C112.398 40.6294 112.912 40.8719 113.551 40.8719H115.468C116.095 40.8719 116.603 40.6294 116.994 40.1443C117.396 39.6592 117.597 39.0204 117.597 38.2277H120.011C120.011 39.186 119.821 40.0319 119.443 40.7654C119.064 41.4871 118.532 42.0491 117.846 42.4513C117.16 42.8417 116.367 43.0369 115.468 43.0369H113.551ZM124.899 43.0369C124.154 43.0369 123.492 42.895 122.912 42.611C122.344 42.3153 121.9 41.9012 121.581 41.3688C121.273 40.8364 121.119 40.2212 121.119 39.5232V37.4469C121.119 36.7489 121.279 36.1337 121.599 35.6013C121.918 35.0571 122.362 34.6371 122.93 34.3413C123.509 34.0455 124.172 33.8977 124.917 33.8977H126.514C127.26 33.8977 127.916 34.0455 128.484 34.3413C129.064 34.6371 129.513 35.0571 129.833 35.6013C130.152 36.1337 130.312 36.7489 130.312 37.4469V39.5232C130.312 40.2212 130.152 40.8364 129.833 41.3688C129.513 41.9012 129.064 42.3153 128.484 42.611C127.916 42.895 127.254 43.0369 126.497 43.0369H124.899ZM126.461 40.9606C126.899 40.9606 127.248 40.8127 127.508 40.517C127.768 40.2094 127.898 39.813 127.898 39.328V37.6066C127.898 37.1215 127.768 36.7311 127.508 36.4354C127.248 36.1278 126.905 35.974 126.479 35.974H124.953C124.527 35.974 124.184 36.1278 123.923 36.4354C123.663 36.7311 123.533 37.1215 123.533 37.6066V39.328C123.533 39.813 123.663 40.2094 123.923 40.517C124.184 40.8127 124.521 40.9606 124.935 40.9606H126.461ZM132.834 43.0724C132.396 43.0724 132.041 42.9423 131.769 42.682C131.509 42.4099 131.379 42.055 131.379 41.6172C131.379 41.1795 131.509 40.8305 131.769 40.5702C132.041 40.2981 132.396 40.1621 132.834 40.1621C133.272 40.1621 133.621 40.2981 133.881 40.5702C134.153 40.8305 134.289 41.1795 134.289 41.6172C134.289 42.055 134.153 42.4099 133.881 42.682C133.621 42.9423 133.272 43.0724 132.834 43.0724Z" fill="#4D6575"/>
</svg>
