<svg xmlns="http://www.w3.org/2000/svg" width="29" height="20" viewBox="0 0 29 20" fill="none">
<rect x="0.5" width="28" height="20" rx="2" fill="white"/>
<mask id="mask0_1983_2134" style="mask-type:luminance" maskUnits="userSpaceOnUse" x="0" y="0" width="29" height="20">
<rect x="0.5" width="28" height="20" rx="2" fill="white"/>
</mask>
<g mask="url(#mask0_1983_2134)">
<rect x="0.5" width="28" height="20" fill="#043CAE"/>
<path fill-rule="evenodd" clip-rule="evenodd" d="M13.5573 4.27624L14.5001 4.0001L15.4429 4.27624L15.1668 3.33343L15.4429 2.39062L14.5001 2.66677L13.5573 2.39062L13.8334 3.33343L13.5573 4.27624ZM13.5573 17.6096L14.5001 17.3334L15.4429 17.6096L15.1668 16.6668L15.4429 15.724L14.5001 16.0001L13.5573 15.724L13.8334 16.6668L13.5573 17.6096ZM21.1668 10.6668L20.224 10.9429L20.5001 10.0001L20.224 9.05729L21.1668 9.33343L22.1096 9.05729L21.8334 10.0001L22.1096 10.9429L21.1668 10.6668ZM6.89062 10.9429L7.83343 10.6668L8.77624 10.9429L8.5001 10.0001L8.77624 9.05729L7.83343 9.33343L6.89062 9.05729L7.16677 10.0001L6.89062 10.9429ZM20.2736 7.33343L19.3308 7.60958L19.6069 6.66677L19.3308 5.72396L20.2736 6.0001L21.2164 5.72396L20.9403 6.66677L21.2164 7.60958L20.2736 7.33343ZM7.78379 14.2762L8.7266 14.0001L9.66941 14.2762L9.39326 13.3334L9.66941 12.3906L8.7266 12.6668L7.78379 12.3906L8.05993 13.3334L7.78379 14.2762ZM17.8334 4.89326L16.8906 5.16941L17.1668 4.2266L16.8906 3.28379L17.8334 3.55993L18.7762 3.28379L18.5001 4.2266L18.7762 5.16941L17.8334 4.89326ZM10.224 16.7164L11.1668 16.4403L12.1096 16.7164L11.8334 15.7736L12.1096 14.8308L11.1668 15.1069L10.224 14.8308L10.5001 15.7736L10.224 16.7164ZM20.2736 14.0001L19.3308 14.2762L19.6069 13.3334L19.3308 12.3906L20.2736 12.6668L21.2164 12.3906L20.9403 13.3334L21.2164 14.2762L20.2736 14.0001ZM7.78379 7.60958L8.7266 7.33343L9.66941 7.60958L9.39326 6.66677L9.66941 5.72396L8.7266 6.0001L7.78379 5.72396L8.05993 6.66677L7.78379 7.60958ZM17.8334 16.4403L16.8906 16.7164L17.1668 15.7736L16.8906 14.8308L17.8334 15.1069L18.7762 14.8308L18.5001 15.7736L18.7762 16.7164L17.8334 16.4403ZM10.224 5.16941L11.1668 4.89326L12.1096 5.16941L11.8334 4.2266L12.1096 3.28379L11.1668 3.55993L10.224 3.28379L10.5001 4.2266L10.224 5.16941Z" fill="#FFD429"/>
</g>
</svg>