<svg xmlns="http://www.w3.org/2000/svg" width="29" height="20" viewBox="0 0 29 20" fill="none">
<rect x="0.5" width="28" height="20" rx="2" fill="white"/>
<mask id="mask0_1983_2143" style="mask-type:luminance" maskUnits="userSpaceOnUse" x="0" y="0" width="29" height="20">
<rect x="0.5" width="28" height="20" rx="2" fill="white"/>
</mask>
<g mask="url(#mask0_1983_2143)">
<path fill-rule="evenodd" clip-rule="evenodd" d="M28.5 0H0.5V1.33333H28.5V0ZM28.5 2.66667H0.5V4H28.5V2.66667ZM0.5 5.33333H28.5V6.66667H0.5V5.33333ZM28.5 8H0.5V9.33333H28.5V8ZM0.5 10.6667H28.5V12H0.5V10.6667ZM28.5 13.3333H0.5V14.6667H28.5V13.3333ZM0.5 16H28.5V17.3333H0.5V16ZM28.5 18.6667H0.5V20H28.5V18.6667Z" fill="#D02F44"/>
<rect x="0.5" width="12" height="9.33333" fill="#46467F"/>
<g filter="url(#filter0_d_1983_2143)">
<path fill-rule="evenodd" clip-rule="evenodd" d="M3.16634 1.99992C3.16634 2.36811 2.86786 2.66659 2.49967 2.66659C2.13148 2.66659 1.83301 2.36811 1.83301 1.99992C1.83301 1.63173 2.13148 1.33325 2.49967 1.33325C2.86786 1.33325 3.16634 1.63173 3.16634 1.99992ZM5.83301 1.99992C5.83301 2.36811 5.53453 2.66659 5.16634 2.66659C4.79815 2.66659 4.49967 2.36811 4.49967 1.99992C4.49967 1.63173 4.79815 1.33325 5.16634 1.33325C5.53453 1.33325 5.83301 1.63173 5.83301 1.99992ZM7.83301 2.66659C8.2012 2.66659 8.49967 2.36811 8.49967 1.99992C8.49967 1.63173 8.2012 1.33325 7.83301 1.33325C7.46482 1.33325 7.16634 1.63173 7.16634 1.99992C7.16634 2.36811 7.46482 2.66659 7.83301 2.66659ZM11.1663 1.99992C11.1663 2.36811 10.8679 2.66659 10.4997 2.66659C10.1315 2.66659 9.83301 2.36811 9.83301 1.99992C9.83301 1.63173 10.1315 1.33325 10.4997 1.33325C10.8679 1.33325 11.1663 1.63173 11.1663 1.99992ZM3.83301 3.99992C4.2012 3.99992 4.49967 3.70144 4.49967 3.33325C4.49967 2.96506 4.2012 2.66659 3.83301 2.66659C3.46482 2.66659 3.16634 2.96506 3.16634 3.33325C3.16634 3.70144 3.46482 3.99992 3.83301 3.99992ZM7.16634 3.33325C7.16634 3.70144 6.86786 3.99992 6.49967 3.99992C6.13148 3.99992 5.83301 3.70144 5.83301 3.33325C5.83301 2.96506 6.13148 2.66659 6.49967 2.66659C6.86786 2.66659 7.16634 2.96506 7.16634 3.33325ZM9.16634 3.99992C9.53453 3.99992 9.83301 3.70144 9.83301 3.33325C9.83301 2.96506 9.53453 2.66659 9.16634 2.66659C8.79815 2.66659 8.49967 2.96506 8.49967 3.33325C8.49967 3.70144 8.79815 3.99992 9.16634 3.99992ZM11.1663 4.66659C11.1663 5.03478 10.8679 5.33325 10.4997 5.33325C10.1315 5.33325 9.83301 5.03478 9.83301 4.66659C9.83301 4.2984 10.1315 3.99992 10.4997 3.99992C10.8679 3.99992 11.1663 4.2984 11.1663 4.66659ZM7.83301 5.33325C8.2012 5.33325 8.49967 5.03478 8.49967 4.66659C8.49967 4.2984 8.2012 3.99992 7.83301 3.99992C7.46482 3.99992 7.16634 4.2984 7.16634 4.66659C7.16634 5.03478 7.46482 5.33325 7.83301 5.33325ZM5.83301 4.66659C5.83301 5.03478 5.53453 5.33325 5.16634 5.33325C4.79815 5.33325 4.49967 5.03478 4.49967 4.66659C4.49967 4.2984 4.79815 3.99992 5.16634 3.99992C5.53453 3.99992 5.83301 4.2984 5.83301 4.66659ZM2.49967 5.33325C2.86786 5.33325 3.16634 5.03478 3.16634 4.66659C3.16634 4.2984 2.86786 3.99992 2.49967 3.99992C2.13148 3.99992 1.83301 4.2984 1.83301 4.66659C1.83301 5.03478 2.13148 5.33325 2.49967 5.33325ZM4.49967 5.99992C4.49967 6.36811 4.2012 6.66659 3.83301 6.66659C3.46482 6.66659 3.16634 6.36811 3.16634 5.99992C3.16634 5.63173 3.46482 5.33325 3.83301 5.33325C4.2012 5.33325 4.49967 5.63173 4.49967 5.99992ZM6.49967 6.66659C6.86786 6.66659 7.16634 6.36811 7.16634 5.99992C7.16634 5.63173 6.86786 5.33325 6.49967 5.33325C6.13148 5.33325 5.83301 5.63173 5.83301 5.99992C5.83301 6.36811 6.13148 6.66659 6.49967 6.66659ZM9.83301 5.99992C9.83301 6.36811 9.53453 6.66659 9.16634 6.66659C8.79815 6.66659 8.49967 6.36811 8.49967 5.99992C8.49967 5.63173 8.79815 5.33325 9.16634 5.33325C9.53453 5.33325 9.83301 5.63173 9.83301 5.99992ZM10.4997 7.99992C10.8679 7.99992 11.1663 7.70144 11.1663 7.33325C11.1663 6.96506 10.8679 6.66659 10.4997 6.66659C10.1315 6.66659 9.83301 6.96506 9.83301 7.33325C9.83301 7.70144 10.1315 7.99992 10.4997 7.99992ZM8.49967 7.33325C8.49967 7.70144 8.2012 7.99992 7.83301 7.99992C7.46482 7.99992 7.16634 7.70144 7.16634 7.33325C7.16634 6.96506 7.46482 6.66659 7.83301 6.66659C8.2012 6.66659 8.49967 6.96506 8.49967 7.33325ZM5.16634 7.99992C5.53453 7.99992 5.83301 7.70144 5.83301 7.33325C5.83301 6.96506 5.53453 6.66659 5.16634 6.66659C4.79815 6.66659 4.49967 6.96506 4.49967 7.33325C4.49967 7.70144 4.79815 7.99992 5.16634 7.99992ZM3.16634 7.33325C3.16634 7.70144 2.86786 7.99992 2.49967 7.99992C2.13148 7.99992 1.83301 7.70144 1.83301 7.33325C1.83301 6.96506 2.13148 6.66659 2.49967 6.66659C2.86786 6.66659 3.16634 6.96506 3.16634 7.33325Z" fill="url(#paint0_linear_1983_2143)"/>
</g>
</g>
<defs>
<filter id="filter0_d_1983_2143" x="1.83301" y="1.33325" width="9.33301" height="7.66675" filterUnits="userSpaceOnUse" color-interpolation-filters="sRGB">
<feFlood flood-opacity="0" result="BackgroundImageFix"/>
<feColorMatrix in="SourceAlpha" type="matrix" values="0 0 0 0 0 0 0 0 0 0 0 0 0 0 0 0 0 0 127 0" result="hardAlpha"/>
<feOffset dy="1"/>
<feColorMatrix type="matrix" values="0 0 0 0 0 0 0 0 0 0 0 0 0 0 0 0 0 0 0.06 0"/>
<feBlend mode="normal" in2="BackgroundImageFix" result="effect1_dropShadow_1983_2143"/>
<feBlend mode="normal" in="SourceGraphic" in2="effect1_dropShadow_1983_2143" result="shape"/>
</filter>
<linearGradient id="paint0_linear_1983_2143" x1="1.83301" y1="1.33325" x2="1.83301" y2="7.99992" gradientUnits="userSpaceOnUse">
<stop stop-color="white"/>
<stop offset="1" stop-color="#F0F0F0"/>
</linearGradient>
</defs>
</svg>